<?xml version="1.0" standalone="no"?>
<!DOCTYPE svg PUBLIC "-//W3C//DTD SVG 20010904//EN"
 "http://www.w3.org/TR/2001/REC-SVG-20010904/DTD/svg10.dtd">
<svg version="1.0" xmlns="http://www.w3.org/2000/svg"
 width="366.000000pt" height="366.000000pt" viewBox="0 0 366.000000 366.000000"
 preserveAspectRatio="xMidYMid meet">

<g transform="translate(0.000000,366.000000) scale(0.100000,-0.100000)"
fill="#000000" stroke="none">
<path d="M1071 3021 c-22 -27 -57 -82 -76 -124 -34 -71 -36 -80 -36 -180 l0
-105 -47 -44 c-26 -24 -54 -49 -63 -54 -8 -5 -56 -65 -107 -134 -50 -69 -110
-147 -132 -174 -43 -54 -81 -145 -103 -246 -8 -36 -22 -94 -30 -130 -39 -157
-45 -409 -12 -500 7 -19 21 -64 31 -100 22 -78 51 -118 124 -169 68 -48 248
-141 272 -141 10 0 46 -11 80 -24 83 -31 226 -64 313 -71 39 -4 111 -13 160
-21 152 -24 310 -34 547 -34 187 0 235 -3 268 -16 30 -12 62 -15 123 -12 94 5
157 32 278 119 39 28 83 55 97 62 53 22 82 49 154 143 40 53 87 114 105 137
30 39 59 117 108 291 9 32 23 125 31 205 7 80 19 181 25 224 18 124 -2 248
-61 382 l-22 50 61 119 c34 66 61 124 61 130 0 6 7 25 16 41 22 41 54 134 54
157 0 11 -11 22 -27 28 -16 6 -36 15 -45 20 -33 19 -104 12 -135 -13 -15 -12
-48 -36 -73 -52 -24 -17 -72 -56 -106 -87 -34 -32 -68 -58 -75 -58 -25 1 -123
37 -194 73 -60 30 -87 36 -185 46 -63 6 -124 11 -135 10 -34 -2 -228 19 -280
31 -27 6 -84 10 -125 9 -41 -1 -172 -2 -291 -1 l-216 2 -34 66 c-47 94 -105
155 -167 177 -74 25 -86 23 -131 -32z m168 -123 c53 -58 66 -81 58 -102 -8
-19 -70 -46 -107 -46 -16 0 -42 -11 -58 -25 -51 -43 -62 -31 -42 50 6 22 14
60 19 85 5 25 14 58 20 74 10 24 15 27 38 21 14 -3 47 -29 72 -57z m846 -196
c61 -6 171 -10 245 -10 74 0 153 -5 175 -10 74 -20 158 -52 204 -79 57 -33
155 -105 160 -117 2 -5 14 -19 26 -30 11 -12 34 -39 50 -61 16 -22 43 -56 60
-75 81 -90 110 -199 109 -405 -2 -161 -15 -271 -44 -353 -11 -31 -34 -104 -51
-162 -38 -127 -56 -164 -125 -256 -60 -80 -107 -125 -163 -153 -21 -11 -76
-45 -121 -76 -79 -52 -84 -54 -106 -40 -27 17 -56 19 -70 5 -14 -14 -218 -49
-287 -49 -31 0 -70 7 -85 14 -49 26 -132 39 -158 24 -33 -17 -313 -6 -374 15
-25 9 -65 16 -89 16 -24 0 -71 4 -105 9 -33 6 -96 15 -139 21 -118 17 -218 51
-369 123 -169 80 -226 129 -253 214 -10 32 -24 78 -32 103 -8 25 -17 98 -20
163 -6 124 -1 159 43 317 13 47 24 94 24 106 0 41 78 202 126 262 27 33 65 81
84 107 36 50 98 113 218 223 76 69 164 126 229 148 52 18 120 9 134 -17 12
-23 48 -25 54 -4 3 8 7 21 9 28 4 15 475 15 641 -1z m925 -104 c-6 -13 -15
-35 -21 -50 -12 -31 -39 -37 -59 -14 -21 26 -8 57 30 71 54 19 61 18 50 -7z"/>
<path d="M1314 2294 c-89 -61 -221 -179 -240 -216 -19 -37 -18 -45 11 -64 41
-27 92 -6 148 60 49 56 97 86 141 86 35 0 72 -31 139 -115 35 -43 64 -45 78
-7 5 15 19 34 30 43 18 14 20 20 10 55 -9 33 -19 45 -67 72 -31 18 -67 35 -80
38 -14 4 -30 14 -37 24 -12 17 -68 50 -85 50 -5 0 -27 -12 -48 -26z"/>
<path d="M2293 2166 c-21 -18 -64 -50 -96 -71 -74 -47 -97 -90 -70 -135 9 -16
23 -32 31 -35 16 -6 47 26 86 89 36 60 61 76 128 83 48 5 55 3 78 -21 13 -15
29 -41 35 -59 11 -36 29 -43 68 -28 51 20 29 93 -46 155 -83 68 -155 76 -214
22z"/>
<path d="M1750 1725 c-63 -6 -134 -19 -156 -28 -66 -24 -140 -83 -178 -142
-33 -49 -36 -59 -36 -127 1 -62 6 -83 33 -138 l32 -64 90 -35 c88 -35 93 -35
240 -35 l150 -1 90 37 c163 68 213 162 169 317 -24 84 -43 117 -94 165 -73 69
-114 75 -340 51z m251 -94 c37 -25 105 -123 119 -171 11 -40 -4 -93 -40 -133
-52 -60 -224 -101 -367 -87 -164 15 -243 77 -243 191 0 60 10 83 59 128 78 72
178 101 347 98 77 -2 96 -5 125 -26z"/>
<path d="M1655 1516 c-33 -33 -44 -110 -20 -136 30 -33 62 -26 85 20 27 53 26
104 -2 124 -29 21 -35 20 -63 -8z"/>
<path d="M1892 1503 c-31 -25 -40 -101 -17 -137 32 -49 78 -24 89 49 13 84
-23 128 -72 88z"/>
<path d="M744 1655 c-30 -66 -27 -101 12 -111 18 -5 32 0 48 16 21 19 23 29
21 83 -4 58 -5 62 -30 65 -22 3 -29 -3 -51 -53z"/>
<path d="M905 1637 c2 -64 9 -77 40 -77 31 0 48 32 40 73 -10 44 -23 57 -55
57 -27 0 -27 -1 -25 -53z"/>
<path d="M1030 1664 c6 -14 10 -36 10 -49 0 -27 30 -95 41 -95 18 0 39 34 39
65 0 25 -9 42 -36 69 -44 44 -68 48 -54 10z"/>
<path d="M2594 1591 c2 -69 13 -86 49 -77 25 6 37 30 37 74 0 42 32 22 44 -28
9 -38 15 -45 39 -48 34 -4 42 13 33 72 -8 53 -15 56 -123 63 l-82 6 3 -62z"/>
<path d="M2453 1604 c-7 -19 3 -99 17 -124 15 -28 45 -25 69 6 12 15 21 30 21
34 0 3 -14 28 -31 53 -32 48 -64 61 -76 31z"/>
</g>
</svg>
