<?xml version="1.0" standalone="no"?>
<!DOCTYPE svg PUBLIC "-//W3C//DTD SVG 20010904//EN"
 "http://www.w3.org/TR/2001/REC-SVG-20010904/DTD/svg10.dtd">
<svg version="1.0" xmlns="http://www.w3.org/2000/svg"
 width="315.000000pt" height="315.000000pt" viewBox="0 0 315.000000 315.000000"
 preserveAspectRatio="xMidYMid meet">

<g transform="translate(0.000000,315.000000) scale(0.100000,-0.100000)"
fill="#000000" stroke="none">
<path d="M761 2716 c-11 -13 -9 -21 9 -51 22 -35 22 -36 3 -63 -16 -24 -18
-50 -18 -257 0 -159 -4 -236 -12 -250 -6 -11 -21 -108 -33 -215 -33 -303 -68
-517 -97 -585 -47 -114 -83 -358 -87 -600 -2 -99 -7 -192 -11 -207 -5 -21 -3
-27 15 -33 39 -12 49 11 49 120 0 55 -2 134 -5 175 -8 122 50 466 100 593 14
34 28 89 31 122 4 33 11 79 16 103 11 51 33 216 53 403 9 75 21 149 28 165 8
20 12 98 13 252 0 187 2 224 15 232 8 5 22 7 30 4 53 -19 458 -35 1025 -40
468 -3 629 -13 655 -40 27 -28 36 -396 11 -428 -5 -6 -11 -36 -15 -66 -8 -63
-65 -383 -101 -570 -36 -185 -36 -194 -49 -548 l-11 -327 -70 -7 c-38 -4 -216
-10 -395 -12 -179 -3 -359 -10 -400 -16 -41 -7 -104 -13 -140 -16 -36 -2 -87
-8 -115 -14 -61 -12 -284 -31 -420 -35 -113 -4 -158 -16 -153 -42 5 -29 48
-44 105 -38 28 3 95 10 150 16 54 5 127 12 163 14 36 2 144 11 240 20 96 8
274 20 395 25 121 5 240 13 265 17 25 4 159 7 298 8 270 0 272 0 272 50 0 39
-16 50 -68 48 l-49 -2 -2 162 c-3 317 18 584 63 787 25 108 55 279 71 395 9
62 23 120 32 135 15 21 17 52 17 190 1 91 -3 185 -8 210 -11 56 -50 109 -94
127 -57 24 -315 33 -482 18 -80 -8 -197 -12 -260 -10 -63 2 -245 9 -405 14
-323 11 -430 22 -513 52 -86 31 -97 32 -111 15z"/>
<path d="M1000 2154 c0 -33 23 -55 94 -89 52 -25 76 -42 80 -58 3 -12 31 -42
63 -67 98 -77 146 -132 226 -254 47 -72 56 -88 61 -117 8 -37 37 -68 66 -71
20 -3 28 5 43 37 10 22 28 50 39 61 10 12 32 48 47 80 20 42 47 76 94 117 92
80 186 143 251 167 48 18 60 20 96 9 24 -7 44 -9 48 -3 14 16 34 85 28 92 -12
12 -138 1 -179 -15 -73 -29 -199 -124 -308 -233 -58 -58 -112 -115 -120 -127
-20 -31 -39 -32 -58 -2 -60 96 -174 226 -262 299 -23 19 -63 56 -88 82 -73 73
-221 136 -221 92z"/>
<path d="M1939 1574 c-13 -15 -41 -37 -61 -50 -45 -29 -57 -64 -34 -99 9 -13
16 -33 16 -44 0 -52 41 -91 96 -91 18 0 32 12 54 47 17 26 30 54 30 64 0 9 8
27 19 40 15 19 17 36 13 82 -4 51 -8 60 -29 68 -43 16 -78 10 -104 -17z"/>
<path d="M1200 1508 c-65 -68 -75 -101 -40 -133 27 -25 103 -32 134 -12 33 22
56 95 49 157 l-6 50 -38 0 c-34 0 -46 -7 -99 -62z"/>
<path d="M1439 1164 c-91 -69 -193 -168 -221 -213 -21 -33 -21 -34 -2 -48 32
-24 56 -11 117 65 55 68 153 152 176 152 17 0 78 -58 133 -127 48 -61 94 -93
133 -93 11 0 15 10 15 37 0 29 -9 46 -47 88 -27 28 -74 83 -107 123 -76 94
-94 95 -197 16z"/>
</g>
</svg>
